<svg width="465" height="24" viewBox="0 0 465 24" fill="none" xmlns="http://www.w3.org/2000/svg">
<path d="M1.53409 23.6282V8.6282H3.15341V10.3612H3.35227C3.47538 10.1718 3.64583 9.93028 3.86364 9.63672C4.08617 9.33843 4.40341 9.07328 4.81534 8.84127C5.23201 8.60453 5.79545 8.48616 6.50568 8.48616C7.42424 8.48616 8.2339 8.7158 8.93466 9.17508C9.63542 9.63436 10.1823 10.2854 10.5753 11.1282C10.9683 11.971 11.1648 12.9653 11.1648 14.1112C11.1648 15.2665 10.9683 16.2679 10.5753 17.1154C10.1823 17.9582 9.63778 18.6116 8.94176 19.0756C8.24574 19.5349 7.44318 19.7646 6.53409 19.7646C5.83333 19.7646 5.27225 19.6486 4.85085 19.4166C4.42945 19.1798 4.10511 18.9123 3.87784 18.614C3.65057 18.311 3.47538 18.06 3.35227 17.8612H3.21023V23.6282H1.53409ZM3.18182 14.0827C3.18182 14.9066 3.30256 15.6334 3.54403 16.2631C3.78551 16.8881 4.13826 17.3782 4.60227 17.7333C5.06629 18.0837 5.63447 18.2589 6.30682 18.2589C7.00758 18.2589 7.59233 18.0742 8.06108 17.7049C8.53456 17.3309 8.88968 16.829 9.12642 16.1992C9.3679 15.5648 9.48864 14.8593 9.48864 14.0827C9.48864 13.3157 9.37027 12.6244 9.13352 12.0089C8.90152 11.3886 8.54877 10.8986 8.07528 10.5387C7.60653 10.1741 7.01705 9.99184 6.30682 9.99184C5.625 9.99184 5.05208 10.1647 4.58807 10.5103C4.12405 10.8512 3.77367 11.3294 3.53693 11.945C3.30019 12.5558 3.18182 13.2684 3.18182 14.0827ZM18.1534 19.7646C17.1686 19.7646 16.3045 19.5302 15.5611 19.0614C14.8224 18.5927 14.2448 17.9369 13.8281 17.0941C13.4162 16.2513 13.2102 15.2665 13.2102 14.1396C13.2102 13.0032 13.4162 12.0113 13.8281 11.1637C14.2448 10.3162 14.8224 9.65803 15.5611 9.18928C16.3045 8.72053 17.1686 8.48616 18.1534 8.48616C19.1383 8.48616 20 8.72053 20.7386 9.18928C21.482 9.65803 22.0597 10.3162 22.4716 11.1637C22.8883 12.0113 23.0966 13.0032 23.0966 14.1396C23.0966 15.2665 22.8883 16.2513 22.4716 17.0941C22.0597 17.9369 21.482 18.5927 20.7386 19.0614C20 19.5302 19.1383 19.7646 18.1534 19.7646ZM18.1534 18.2589C18.9015 18.2589 19.517 18.0671 20 17.6836C20.483 17.3001 20.8404 16.7958 21.0724 16.1708C21.3045 15.5458 21.4205 14.8687 21.4205 14.1396C21.4205 13.4104 21.3045 12.7309 21.0724 12.1012C20.8404 11.4715 20.483 10.9625 20 10.5742C19.517 10.186 18.9015 9.99184 18.1534 9.99184C17.4053 9.99184 16.7898 10.186 16.3068 10.5742C15.8239 10.9625 15.4664 11.4715 15.2344 12.1012C15.0024 12.7309 14.8864 13.4104 14.8864 14.1396C14.8864 14.8687 15.0024 15.5458 15.2344 16.1708C15.4664 16.7958 15.8239 17.3001 16.3068 17.6836C16.7898 18.0671 17.4053 18.2589 18.1534 18.2589ZM30.3995 8.6282V10.0487H24.7461V8.6282H30.3995ZM26.3938 6.01456H28.07V16.4123C28.07 16.8858 28.1386 17.2409 28.2759 17.4776C28.418 17.7096 28.5979 17.8659 28.8157 17.9464C29.0382 18.0221 29.2726 18.06 29.5188 18.06C29.7035 18.06 29.855 18.0505 29.9734 18.0316C30.0917 18.0079 30.1864 17.989 30.2575 17.9748L30.5984 19.4805C30.4847 19.5231 30.3261 19.5657 30.1225 19.6083C29.9189 19.6557 29.6609 19.6793 29.3484 19.6793C28.8749 19.6793 28.4109 19.5775 27.9563 19.3739C27.5065 19.1703 27.1325 18.8602 26.8342 18.4435C26.5406 18.0269 26.3938 17.5013 26.3938 16.8668V6.01456ZM37.2354 19.7646C36.2506 19.7646 35.3865 19.5302 34.6431 19.0614C33.9045 18.5927 33.3268 17.9369 32.9102 17.0941C32.4982 16.2513 32.2923 15.2665 32.2923 14.1396C32.2923 13.0032 32.4982 12.0113 32.9102 11.1637C33.3268 10.3162 33.9045 9.65803 34.6431 9.18928C35.3865 8.72053 36.2506 8.48616 37.2354 8.48616C38.2203 8.48616 39.082 8.72053 39.8207 9.18928C40.564 9.65803 41.1417 10.3162 41.5536 11.1637C41.9703 12.0113 42.1786 13.0032 42.1786 14.1396C42.1786 15.2665 41.9703 16.2513 41.5536 17.0941C41.1417 17.9369 40.564 18.5927 39.8207 19.0614C39.082 19.5302 38.2203 19.7646 37.2354 19.7646ZM37.2354 18.2589C37.9835 18.2589 38.5991 18.0671 39.082 17.6836C39.565 17.3001 39.9225 16.7958 40.1545 16.1708C40.3865 15.5458 40.5025 14.8687 40.5025 14.1396C40.5025 13.4104 40.3865 12.7309 40.1545 12.1012C39.9225 11.4715 39.565 10.9625 39.082 10.5742C38.5991 10.186 37.9835 9.99184 37.2354 9.99184C36.4873 9.99184 35.8718 10.186 35.3888 10.5742C34.9059 10.9625 34.5484 11.4715 34.3164 12.1012C34.0844 12.7309 33.9684 13.4104 33.9684 14.1396C33.9684 14.8687 34.0844 15.5458 34.3164 16.1708C34.5484 16.7958 34.9059 17.3001 35.3888 17.6836C35.8718 18.0671 36.4873 18.2589 37.2354 18.2589ZM46.4134 4.99184V19.5373H44.7372V4.99184H46.4134ZM53.9151 19.7646C52.9303 19.7646 52.0662 19.5302 51.3228 19.0614C50.5842 18.5927 50.0065 17.9369 49.5898 17.0941C49.1779 16.2513 48.9719 15.2665 48.9719 14.1396C48.9719 13.0032 49.1779 12.0113 49.5898 11.1637C50.0065 10.3162 50.5842 9.65803 51.3228 9.18928C52.0662 8.72053 52.9303 8.48616 53.9151 8.48616C54.9 8.48616 55.7617 8.72053 56.5004 9.18928C57.2437 9.65803 57.8214 10.3162 58.2333 11.1637C58.65 12.0113 58.8583 13.0032 58.8583 14.1396C58.8583 15.2665 58.65 16.2513 58.2333 17.0941C57.8214 17.9369 57.2437 18.5927 56.5004 19.0614C55.7617 19.5302 54.9 19.7646 53.9151 19.7646ZM53.9151 18.2589C54.6632 18.2589 55.2788 18.0671 55.7617 17.6836C56.2447 17.3001 56.6022 16.7958 56.8342 16.1708C57.0662 15.5458 57.1822 14.8687 57.1822 14.1396C57.1822 13.4104 57.0662 12.7309 56.8342 12.1012C56.6022 11.4715 56.2447 10.9625 55.7617 10.5742C55.2788 10.186 54.6632 9.99184 53.9151 9.99184C53.167 9.99184 52.5515 10.186 52.0685 10.5742C51.5856 10.9625 51.2281 11.4715 50.9961 12.1012C50.7641 12.7309 50.6481 13.4104 50.6481 14.1396C50.6481 14.8687 50.7641 15.5458 50.9961 16.1708C51.2281 16.7958 51.5856 17.3001 52.0685 17.6836C52.5515 18.0671 53.167 18.2589 53.9151 18.2589ZM62.9794 15.56L62.951 13.4862H63.2919L68.0646 8.6282H70.1385L65.0533 13.7702H64.9112L62.9794 15.56ZM61.4169 19.5373V4.99184H63.093V19.5373H61.4169ZM68.3487 19.5373L64.0874 14.1396L65.2805 12.9748L70.4794 19.5373H68.3487Z" fill="white"/>
<path d="M102.761 19.5373V4.99184H104.523V11.4691H112.278V4.99184H114.04V19.5373H112.278V13.0316H104.523V19.5373H102.761ZM120.549 19.793C119.858 19.793 119.23 19.6628 118.667 19.4023C118.103 19.1372 117.656 18.756 117.325 18.2589C116.993 17.757 116.827 17.1509 116.827 16.4407C116.827 15.8157 116.951 15.3091 117.197 14.9208C117.443 14.5278 117.772 14.2201 118.184 13.9975C118.596 13.775 119.05 13.6093 119.548 13.5004C120.049 13.3867 120.554 13.2968 121.06 13.2305C121.723 13.1452 122.261 13.0813 122.673 13.0387C123.089 12.9914 123.392 12.9132 123.582 12.8043C123.776 12.6954 123.873 12.506 123.873 12.2362V12.1793C123.873 11.4786 123.681 10.9341 123.298 10.5458C122.919 10.1576 122.344 9.96343 121.572 9.96343C120.772 9.96343 120.144 10.1386 119.69 10.489C119.235 10.8394 118.915 11.2134 118.731 11.6112L117.14 11.043C117.424 10.3801 117.803 9.864 118.276 9.49468C118.754 9.12063 119.275 8.86021 119.839 8.71343C120.407 8.56191 120.966 8.48616 121.515 8.48616C121.865 8.48616 122.268 8.52877 122.722 8.614C123.182 8.69449 123.624 8.86258 124.05 9.11826C124.481 9.37394 124.839 9.75983 125.123 10.2759C125.407 10.792 125.549 11.4833 125.549 12.3498V19.5373H123.873V18.06H123.788C123.674 18.2968 123.485 18.5501 123.219 18.82C122.954 19.0898 122.602 19.3195 122.161 19.5089C121.721 19.6983 121.183 19.793 120.549 19.793ZM120.805 18.2873C121.468 18.2873 122.026 18.1571 122.481 17.8967C122.94 17.6363 123.286 17.3001 123.518 16.8881C123.754 16.4762 123.873 16.043 123.873 15.5884V14.0543C123.802 14.1396 123.646 14.2177 123.404 14.2887C123.167 14.355 122.893 14.4142 122.58 14.4663C122.272 14.5136 121.972 14.5562 121.678 14.5941C121.389 14.6273 121.155 14.6557 120.975 14.6793C120.54 14.7362 120.132 14.8285 119.754 14.9563C119.379 15.0794 119.076 15.2665 118.844 15.5174C118.617 15.7636 118.504 16.0998 118.504 16.5259C118.504 17.1083 118.719 17.5487 119.15 17.847C119.585 18.1405 120.137 18.2873 120.805 18.2873ZM127.124 10.1907V8.6282H135.988V10.1907H132.408V19.5373H130.732V10.1907H127.124ZM144.995 19.5373V10.1623H142.097C141.444 10.1623 140.93 10.3138 140.556 10.6168C140.182 10.9199 139.995 11.3365 139.995 11.8668C139.995 12.3877 140.163 12.7972 140.499 13.0955C140.84 13.3938 141.307 13.543 141.898 13.543H145.421V15.1055H141.898C141.16 15.1055 140.523 14.9753 139.988 14.7148C139.453 14.4544 139.041 14.0827 138.752 13.5998C138.463 13.1121 138.319 12.5345 138.319 11.8668C138.319 11.1945 138.47 10.6168 138.773 10.1339C139.076 9.65093 139.51 9.27924 140.073 9.01883C140.641 8.75841 141.316 8.6282 142.097 8.6282H146.586V19.5373H144.995ZM137.722 19.5373L140.819 14.1112H142.637L139.54 19.5373H137.722ZM148.981 19.5373L153.413 13.9975L149.038 8.6282H151.027L154.663 13.2873H155.572V8.6282H157.248V13.2873H158.129L161.765 8.6282H163.754L159.407 13.9975L163.811 19.5373H161.794L158.1 14.8498H157.248V19.5373H155.572V14.8498H154.72L150.998 19.5373H148.981ZM173.507 13.3157V14.8782H167.484V13.3157H173.507ZM167.882 8.6282V19.5373H166.206V8.6282H167.882ZM174.786 8.6282V19.5373H173.109V8.6282H174.786ZM179.295 12.5771H182.42C183.699 12.5771 184.677 12.9014 185.354 13.5501C186.031 14.1988 186.369 15.0202 186.369 16.0146C186.369 16.668 186.218 17.2622 185.915 17.7972C185.612 18.3275 185.167 18.7513 184.58 19.0685C183.992 19.381 183.273 19.5373 182.42 19.5373H177.847V8.6282H179.523V17.9748H182.42C183.083 17.9748 183.628 17.7996 184.054 17.4492C184.48 17.0988 184.693 16.649 184.693 16.0998C184.693 15.5221 184.48 15.051 184.054 14.6864C183.628 14.3219 183.083 14.1396 182.42 14.1396H179.295V12.5771ZM188.102 19.5373V8.6282H189.778V19.5373H188.102ZM197.42 19.7646C196.369 19.7646 195.463 19.5326 194.7 19.0685C193.943 18.5998 193.358 17.9464 192.946 17.1083C192.539 16.2655 192.335 15.2854 192.335 14.168C192.335 13.0505 192.539 12.0657 192.946 11.2134C193.358 10.3564 193.931 9.68881 194.665 9.21059C195.403 8.72763 196.265 8.48616 197.25 8.48616C197.818 8.48616 198.379 8.58085 198.933 8.77025C199.487 8.95964 199.991 9.26741 200.446 9.69354C200.901 10.1149 201.263 10.6737 201.533 11.3697C201.803 12.0657 201.938 12.9227 201.938 13.9407V14.6509H193.528V13.2021H200.233C200.233 12.5865 200.11 12.0373 199.864 11.5543C199.622 11.0714 199.277 10.6902 198.827 10.4109C198.382 10.1315 197.856 9.99184 197.25 9.99184C196.582 9.99184 196.005 10.1576 195.517 10.489C195.034 10.8157 194.662 11.2418 194.402 11.7674C194.142 12.293 194.011 12.8564 194.011 13.4577V14.4237C194.011 15.2475 194.153 15.9459 194.438 16.5188C194.726 17.087 195.126 17.5202 195.638 17.8185C196.149 18.1121 196.743 18.2589 197.42 18.2589C197.861 18.2589 198.259 18.1973 198.614 18.0742C198.973 17.9464 199.284 17.757 199.544 17.506C199.804 17.2504 200.006 16.9331 200.148 16.5543L201.767 17.0089C201.597 17.5581 201.31 18.0411 200.908 18.4577C200.505 18.8697 200.008 19.1916 199.416 19.4237C198.824 19.6509 198.159 19.7646 197.42 19.7646ZM210.112 19.5373V8.6282H218.692V19.5373H217.016V10.1907H211.788V19.5373H210.112ZM226.185 19.7646C225.2 19.7646 224.336 19.5302 223.592 19.0614C222.854 18.5927 222.276 17.9369 221.859 17.0941C221.447 16.2513 221.241 15.2665 221.241 14.1396C221.241 13.0032 221.447 12.0113 221.859 11.1637C222.276 10.3162 222.854 9.65803 223.592 9.18928C224.336 8.72053 225.2 8.48616 226.185 8.48616C227.17 8.48616 228.031 8.72053 228.77 9.18928C229.513 9.65803 230.091 10.3162 230.503 11.1637C230.92 12.0113 231.128 13.0032 231.128 14.1396C231.128 15.2665 230.92 16.2513 230.503 17.0941C230.091 17.9369 229.513 18.5927 228.77 19.0614C228.031 19.5302 227.17 19.7646 226.185 19.7646ZM226.185 18.2589C226.933 18.2589 227.548 18.0671 228.031 17.6836C228.514 17.3001 228.872 16.7958 229.104 16.1708C229.336 15.5458 229.452 14.8687 229.452 14.1396C229.452 13.4104 229.336 12.7309 229.104 12.1012C228.872 11.4715 228.514 10.9625 228.031 10.5742C227.548 10.186 226.933 9.99184 226.185 9.99184C225.437 9.99184 224.821 10.186 224.338 10.5742C223.855 10.9625 223.498 11.4715 223.266 12.1012C223.034 12.7309 222.918 13.4104 222.918 14.1396C222.918 14.8687 223.034 15.5458 223.266 16.1708C223.498 16.7958 223.855 17.3001 224.338 17.6836C224.821 18.0671 225.437 18.2589 226.185 18.2589ZM232.261 10.1907V8.6282H241.124V10.1907H237.545V19.5373H235.869V10.1907H232.261ZM247.435 19.7646C246.45 19.7646 245.586 19.5302 244.842 19.0614C244.104 18.5927 243.526 17.9369 243.109 17.0941C242.697 16.2513 242.491 15.2665 242.491 14.1396C242.491 13.0032 242.697 12.0113 243.109 11.1637C243.526 10.3162 244.104 9.65803 244.842 9.18928C245.586 8.72053 246.45 8.48616 247.435 8.48616C248.42 8.48616 249.281 8.72053 250.02 9.18928C250.763 9.65803 251.341 10.3162 251.753 11.1637C252.17 12.0113 252.378 13.0032 252.378 14.1396C252.378 15.2665 252.17 16.2513 251.753 17.0941C251.341 17.9369 250.763 18.5927 250.02 19.0614C249.281 19.5302 248.42 19.7646 247.435 19.7646ZM247.435 18.2589C248.183 18.2589 248.798 18.0671 249.281 17.6836C249.764 17.3001 250.122 16.7958 250.354 16.1708C250.586 15.5458 250.702 14.8687 250.702 14.1396C250.702 13.4104 250.586 12.7309 250.354 12.1012C250.122 11.4715 249.764 10.9625 249.281 10.5742C248.798 10.186 248.183 9.99184 247.435 9.99184C246.687 9.99184 246.071 10.186 245.588 10.5742C245.105 10.9625 244.748 11.4715 244.516 12.1012C244.284 12.7309 244.168 13.4104 244.168 14.1396C244.168 14.8687 244.284 15.5458 244.516 16.1708C244.748 16.7958 245.105 17.3001 245.588 17.6836C246.071 18.0671 246.687 18.2589 247.435 18.2589ZM253.971 19.5373V17.9748H254.368C254.695 17.9748 254.967 17.9109 255.185 17.783C255.403 17.6505 255.578 17.4208 255.711 17.0941C255.848 16.7627 255.952 16.3034 256.023 15.7163C256.099 15.1244 256.153 14.3716 256.186 13.4577L256.385 8.6282H263.658V19.5373H261.982V10.1907H257.976L257.806 14.0827C257.768 14.9776 257.687 15.766 257.564 16.4478C257.446 17.1249 257.264 17.6931 257.017 18.1523C256.776 18.6116 256.454 18.9573 256.051 19.1893C255.649 19.4213 255.145 19.5373 254.539 19.5373H253.971ZM266.733 19.5373V8.6282H268.409V13.3725H269.517L273.438 8.6282H275.597L271.194 13.8839L275.654 19.5373H273.495L269.915 14.935H268.409V19.5373H266.733ZM279.152 17.0657L284.407 8.6282H286.339V19.5373H284.663V11.0998L279.436 19.5373H277.475V8.6282H279.152V17.0657ZM295.034 19.5373V8.6282H299.494C300.669 8.6282 301.601 8.89335 302.293 9.42366C302.984 9.95396 303.33 10.6547 303.33 11.5259C303.33 12.1888 303.133 12.7025 302.74 13.0671C302.347 13.427 301.843 13.6708 301.227 13.7987C301.63 13.8555 302.02 13.9975 302.399 14.2248C302.783 14.4521 303.1 14.7646 303.351 15.1623C303.602 15.5553 303.727 16.0382 303.727 16.6112C303.727 17.1699 303.585 17.6694 303.301 18.1097C303.017 18.5501 302.61 18.8981 302.08 19.1538C301.549 19.4095 300.915 19.5373 300.176 19.5373H295.034ZM296.625 18.0032H300.176C300.754 18.0032 301.206 17.8659 301.533 17.5913C301.859 17.3166 302.023 16.9426 302.023 16.4691C302.023 15.9057 301.859 15.463 301.533 15.141C301.206 14.8143 300.754 14.6509 300.176 14.6509H296.625V18.0032ZM296.625 13.2021H299.494C299.944 13.2021 300.33 13.1405 300.652 13.0174C300.974 12.8896 301.22 12.7096 301.391 12.4776C301.566 12.2409 301.653 11.9615 301.653 11.6396C301.653 11.1803 301.462 10.8204 301.078 10.56C300.695 10.2949 300.167 10.1623 299.494 10.1623H296.625V13.2021ZM312.117 19.5373V4.99184H320.895V6.55434H313.878V11.0998H317.571C318.613 11.0998 319.491 11.2702 320.206 11.6112C320.926 11.9521 321.471 12.4327 321.84 13.0529C322.214 13.6732 322.401 14.4047 322.401 15.2475C322.401 16.0903 322.214 16.8337 321.84 17.4776C321.471 18.1216 320.926 18.6258 320.206 18.9904C319.491 19.355 318.613 19.5373 317.571 19.5373H312.117ZM313.878 18.0032H317.571C318.234 18.0032 318.795 17.8706 319.255 17.6055C319.719 17.3356 320.069 16.9899 320.306 16.5685C320.547 16.1424 320.668 15.6926 320.668 15.2191C320.668 14.5231 320.4 13.9241 319.865 13.4222C319.33 12.9156 318.566 12.6623 317.571 12.6623H313.878V18.0032ZM326.749 17.0657L332.005 8.6282H333.937V19.5373H332.261V11.0998L327.033 19.5373H325.073V8.6282H326.749V17.0657ZM338.683 17.0657L343.939 8.6282H345.87V19.5373H344.194V11.0998L338.967 19.5373H337.007V8.6282H338.683V17.0657ZM342.831 4.99184H344.393C344.393 5.75888 344.128 6.38625 343.598 6.87394C343.067 7.36163 342.348 7.60547 341.439 7.60547C340.544 7.60547 339.831 7.36163 339.301 6.87394C338.775 6.38625 338.512 5.75888 338.512 4.99184H340.075C340.075 5.36116 340.177 5.68549 340.38 5.96485C340.589 6.2442 340.941 6.38388 341.439 6.38388C341.936 6.38388 342.291 6.2442 342.504 5.96485C342.722 5.68549 342.831 5.36116 342.831 4.99184ZM353.372 19.7646C352.349 19.7646 351.469 19.5231 350.73 19.0401C349.991 18.5572 349.423 17.8919 349.026 17.0444C348.628 16.1969 348.429 15.2286 348.429 14.1396C348.429 13.0316 348.633 12.0539 349.04 11.2063C349.452 10.3541 350.025 9.68881 350.759 9.21059C351.497 8.72763 352.359 8.48616 353.344 8.48616C354.111 8.48616 354.802 8.6282 355.418 8.91229C356.033 9.19638 356.537 9.59411 356.93 10.1055C357.323 10.6168 357.567 11.2134 357.662 11.8952H355.986C355.858 11.3981 355.574 10.9577 355.134 10.5742C354.698 10.186 354.111 9.99184 353.372 9.99184C352.719 9.99184 352.146 10.1623 351.653 10.5032C351.166 10.8394 350.785 11.3152 350.51 11.9308C350.24 12.5416 350.105 13.2589 350.105 14.0827C350.105 14.9255 350.238 15.6595 350.503 16.2845C350.773 16.9095 351.152 17.3948 351.639 17.7404C352.132 18.0861 352.709 18.2589 353.372 18.2589C353.808 18.2589 354.203 18.1831 354.558 18.0316C354.913 17.8801 355.214 17.6623 355.46 17.3782C355.706 17.0941 355.882 16.7532 355.986 16.3555H357.662C357.567 16.9994 357.333 17.5794 356.959 18.0955C356.589 18.6069 356.099 19.0141 355.489 19.3171C354.883 19.6154 354.177 19.7646 353.372 19.7646ZM360.112 19.5373V8.6282H361.788V13.3725H362.896L366.817 8.6282H368.976L364.572 13.8839L369.033 19.5373H366.874L363.294 14.935H361.788V19.5373H360.112ZM374.979 19.7646C373.928 19.7646 373.021 19.5326 372.259 19.0685C371.501 18.5998 370.917 17.9464 370.505 17.1083C370.097 16.2655 369.894 15.2854 369.894 14.168C369.894 13.0505 370.097 12.0657 370.505 11.2134C370.917 10.3564 371.489 9.68881 372.223 9.21059C372.962 8.72763 373.824 8.48616 374.809 8.48616C375.377 8.48616 375.938 8.58085 376.492 8.77025C377.046 8.95964 377.55 9.26741 378.005 9.69354C378.459 10.1149 378.821 10.6737 379.091 11.3697C379.361 12.0657 379.496 12.9227 379.496 13.9407V14.6509H371.087V13.2021H377.792C377.792 12.5865 377.668 12.0373 377.422 11.5543C377.181 11.0714 376.835 10.6902 376.385 10.4109C375.94 10.1315 375.415 9.99184 374.809 9.99184C374.141 9.99184 373.563 10.1576 373.076 10.489C372.593 10.8157 372.221 11.2418 371.961 11.7674C371.7 12.293 371.57 12.8564 371.57 13.4577V14.4237C371.57 15.2475 371.712 15.9459 371.996 16.5188C372.285 17.087 372.685 17.5202 373.196 17.8185C373.708 18.1121 374.302 18.2589 374.979 18.2589C375.419 18.2589 375.817 18.1973 376.172 18.0742C376.532 17.9464 376.842 17.757 377.103 17.506C377.363 17.2504 377.564 16.9331 377.706 16.5543L379.326 17.0089C379.155 17.5581 378.869 18.0411 378.466 18.4577C378.064 18.8697 377.567 19.1916 376.975 19.4237C376.383 19.6509 375.718 19.7646 374.979 19.7646Z" fill="white"/>
<line x1="86.5" y1="5.35809" x2="86.5" y2="21.2385" stroke="white"/>
</svg>
